<svg width="23" height="24" viewBox="0 0 23 24" fill="none" xmlns="http://www.w3.org/2000/svg">
<path d="M2.88281 11.2188V15.7087C2.88281 20.1987 4.60781 21.9987 8.91073 21.9987H14.0761C18.3791 21.9987 20.1041 20.1987 20.1041 15.7087V11.2188" stroke="#4C4D4D" stroke-width="1.5" stroke-linecap="round" stroke-linejoin="round"/>
<path d="M11.4998 12C13.2536 12 14.5473 10.51 14.3748 8.68L13.7423 2H9.26689L8.62481 8.68C8.45231 10.51 9.74606 12 11.4998 12Z" stroke="#4C4D4D" stroke-width="1.5" stroke-linecap="round" stroke-linejoin="round"/>
<path d="M17.546 12C19.4819 12 20.9002 10.36 20.7085 8.35L20.4402 5.6C20.0952 3 19.1369 2 16.626 2H13.7031L14.374 9.01C14.5369 10.66 15.9648 12 17.546 12Z" stroke="#4C4D4D" stroke-width="1.5" stroke-linecap="round" stroke-linejoin="round"/>
<path d="M5.40641 12C6.98766 12 8.41558 10.66 8.56891 9.01L8.77975 6.8L9.23975 2H6.31683C3.806 2 2.84766 3 2.50266 5.6L2.24391 8.35C2.05225 10.36 3.47058 12 5.40641 12Z" stroke="#4C4D4D" stroke-width="1.5" stroke-linecap="round" stroke-linejoin="round"/>
<path d="M11.4974 17C9.89698 17 9.10156 17.83 9.10156 19.5V22H13.8932V19.5C13.8932 17.83 13.0978 17 11.4974 17Z" stroke="#4C4D4D" stroke-width="1.5" stroke-linecap="round" stroke-linejoin="round"/>
</svg>
