<svg width="24" height="24" viewBox="0 0 24 24" fill="none" xmlns="http://www.w3.org/2000/svg">
<path d="M21 22.75H3C2.59 22.75 2.25 22.41 2.25 22C2.25 21.59 2.59 21.25 3 21.25H21C21.41 21.25 21.75 21.59 21.75 22C21.75 22.41 21.41 22.75 21 22.75Z" fill="#141414"/>
<path d="M5.6 8.37891H4C3.45 8.37891 3 8.82891 3 9.37891V17.9989C3 18.5489 3.45 18.9989 4 18.9989H5.6C6.15 18.9989 6.6 18.5489 6.6 17.9989V9.37891C6.6 8.81891 6.15 8.37891 5.6 8.37891Z" fill="#141414"/>
<path d="M12.8031 5.19141H11.2031C10.6531 5.19141 10.2031 5.64141 10.2031 6.19141V18.0014C10.2031 18.5514 10.6531 19.0014 11.2031 19.0014H12.8031C13.3531 19.0014 13.8031 18.5514 13.8031 18.0014V6.19141C13.8031 5.64141 13.3531 5.19141 12.8031 5.19141Z" fill="#141414"/>
<path d="M19.9984 2H18.3984C17.8484 2 17.3984 2.45 17.3984 3V18C17.3984 18.55 17.8484 19 18.3984 19H19.9984C20.5484 19 20.9984 18.55 20.9984 18V3C20.9984 2.45 20.5484 2 19.9984 2Z" fill="#141414"/>
</svg>
