<svg width="16" height="16" viewBox="0 0 16 16" fill="none" xmlns="http://www.w3.org/2000/svg">
<path d="M10.0761 8.47354C10.0136 8.41156 9.96403 8.33783 9.93019 8.25659C9.89634 8.17535 9.87892 8.08821 9.87892 8.0002C9.87892 7.9122 9.89634 7.82506 9.93019 7.74382C9.96403 7.66258 10.0136 7.58885 10.0761 7.52687L13.1361 4.47354C13.1986 4.41156 13.2482 4.33783 13.282 4.25659C13.3159 4.17535 13.3333 4.08821 13.3333 4.0002C13.3333 3.9122 13.3159 3.82506 13.282 3.74382C13.2482 3.66258 13.1986 3.58885 13.1361 3.52687C13.0112 3.4027 12.8422 3.33301 12.6661 3.33301C12.49 3.33301 12.321 3.4027 12.1961 3.52687L9.13611 6.58687C8.76158 6.96187 8.55121 7.4702 8.55121 8.0002C8.55121 8.5302 8.76158 9.03854 9.13611 9.41354L12.1961 12.4735C12.3203 12.5967 12.4879 12.6661 12.6628 12.6669C12.7505 12.6674 12.8375 12.6506 12.9187 12.6174C12.9999 12.5842 13.0738 12.5353 13.1361 12.4735C13.1986 12.4116 13.2482 12.3378 13.282 12.2566C13.3159 12.1753 13.3333 12.0882 13.3333 12.0002C13.3333 11.9122 13.3159 11.8251 13.282 11.7438C13.2482 11.6626 13.1986 11.5888 13.1361 11.5269L10.0761 8.47354Z" fill="#141414"/>
<path d="M4.0553 8.47354C3.99282 8.41156 3.94322 8.33783 3.90937 8.25659C3.87553 8.17535 3.8581 8.08821 3.8581 8.0002C3.8581 7.9122 3.87553 7.82506 3.90937 7.74382C3.94322 7.66258 3.99282 7.58885 4.0553 7.52687L7.1153 4.47354C7.17779 4.41156 7.22738 4.33783 7.26123 4.25659C7.29508 4.17535 7.3125 4.08821 7.3125 4.0002C7.3125 3.9122 7.29508 3.82506 7.26123 3.74382C7.22738 3.66258 7.17779 3.58885 7.1153 3.52687C6.99039 3.4027 6.82143 3.33301 6.6453 3.33301C6.46918 3.33301 6.30021 3.4027 6.1753 3.52687L3.1153 6.58687C2.74077 6.96187 2.53039 7.4702 2.53039 8.0002C2.53039 8.5302 2.74077 9.03854 3.1153 9.41354L6.1753 12.4735C6.29947 12.5967 6.46707 12.6661 6.64197 12.6669C6.7297 12.6674 6.81668 12.6506 6.89791 12.6174C6.97913 12.5842 7.05301 12.5353 7.1153 12.4735C7.17779 12.4116 7.22738 12.3378 7.26123 12.2566C7.29507 12.1753 7.3125 12.0882 7.3125 12.0002C7.3125 11.9122 7.29507 11.8251 7.26123 11.7438C7.22738 11.6626 7.17779 11.5888 7.1153 11.5269L4.0553 8.47354Z" fill="#141414"/>
</svg>
