<svg width="16" height="16" viewBox="0 0 16 16" fill="none" xmlns="http://www.w3.org/2000/svg">
<path d="M5.92382 7.52671C5.98631 7.58868 6.03591 7.66242 6.06975 7.74366C6.1036 7.8249 6.12102 7.91203 6.12102 8.00004C6.12102 8.08805 6.1036 8.17519 6.06975 8.25643C6.03591 8.33766 5.98631 8.4114 5.92382 8.47337L2.86382 11.5267C2.80134 11.5887 2.75174 11.6624 2.7179 11.7437C2.68405 11.8249 2.66663 11.912 2.66663 12C2.66663 12.088 2.68405 12.1752 2.7179 12.2564C2.75174 12.3377 2.80134 12.4114 2.86382 12.4734C2.98873 12.5975 3.1577 12.6672 3.33382 12.6672C3.50995 12.6672 3.67892 12.5975 3.80382 12.4734L6.86382 9.41337C7.23836 9.03837 7.44873 8.53004 7.44873 8.00004C7.44873 7.47004 7.23836 6.96171 6.86382 6.58671L3.80382 3.52671C3.67965 3.40355 3.51205 3.33411 3.33716 3.33337C3.24942 3.33287 3.16244 3.34968 3.08122 3.38286C3 3.41604 2.92612 3.46492 2.86382 3.52671C2.80134 3.58868 2.75174 3.66242 2.7179 3.74366C2.68405 3.8249 2.66663 3.91203 2.66663 4.00004C2.66663 4.08805 2.68405 4.17519 2.7179 4.25643C2.75174 4.33767 2.80134 4.4114 2.86382 4.47337L5.92382 7.52671Z" fill="#141414"/>
<path d="M11.9447 7.52671C12.0072 7.58868 12.0568 7.66242 12.0906 7.74366C12.1245 7.8249 12.1419 7.91203 12.1419 8.00004C12.1419 8.08805 12.1245 8.17519 12.0906 8.25643C12.0568 8.33766 12.0072 8.4114 11.9447 8.47337L8.8847 11.5267C8.82221 11.5887 8.77262 11.6624 8.73877 11.7437C8.70492 11.8249 8.6875 11.912 8.6875 12C8.6875 12.088 8.70492 12.1752 8.73877 12.2564C8.77262 12.3377 8.82221 12.4114 8.8847 12.4734C9.00961 12.5975 9.17857 12.6672 9.3547 12.6672C9.53082 12.6672 9.69979 12.5975 9.8247 12.4734L12.8847 9.41337C13.2592 9.03837 13.4696 8.53004 13.4696 8.00004C13.4696 7.47004 13.2592 6.96171 12.8847 6.58671L9.8247 3.52671C9.70053 3.40355 9.53293 3.33411 9.35803 3.33337C9.27029 3.33287 9.18332 3.34968 9.10209 3.38286C9.02087 3.41604 8.94699 3.46492 8.8847 3.52671C8.82221 3.58868 8.77262 3.66242 8.73877 3.74366C8.70492 3.8249 8.6875 3.91203 8.6875 4.00004C8.6875 4.08805 8.70492 4.17519 8.73877 4.25643C8.77262 4.33767 8.82221 4.4114 8.8847 4.47337L11.9447 7.52671Z" fill="#141414"/>
</svg>
