<svg width="24" height="24" viewBox="0 0 24 24" fill="none" xmlns="http://www.w3.org/2000/svg">
<path d="M11.5 21C16.7467 21 21 16.7467 21 11.5C21 6.25329 16.7467 2 11.5 2C6.25329 2 2 6.25329 2 11.5C2 16.7467 6.25329 21 11.5 21Z" fill="#141414"/>
<path d="M21.2986 21.9986C21.1186 21.9986 20.9386 21.9286 20.8086 21.7986L18.9486 19.9386C18.6786 19.6686 18.6786 19.2286 18.9486 18.9486C19.2186 18.6786 19.6586 18.6786 19.9386 18.9486L21.7986 20.8086C22.0686 21.0786 22.0686 21.5186 21.7986 21.7986C21.6586 21.9286 21.4786 21.9986 21.2986 21.9986Z" fill="#141414"/>
</svg>
