<svg width="1592" height="1007" viewBox="0 0 1592 1007" fill="none" xmlns="http://www.w3.org/2000/svg">
<path d="M128.096 -79.7902L157.551 -189.719L925.945 16.1718M128.096 -79.7902L-69.6756 658.302M128.096 -79.7902L517.915 24.6616M1664.88 331.991L1694.34 222.062L925.945 16.1718M1664.88 331.991L1467.11 1070.08M1664.88 331.991L1275.06 227.539M1467.11 1070.08L1433.45 1195.72L665.055 989.825M1467.11 1070.08L1077.29 965.631M-69.6756 658.302L-103.339 783.935L665.055 989.825M-69.6756 658.302L320.144 762.754M517.915 24.6616L1275.06 227.539M517.915 24.6616L419.171 393.18M320.144 762.754L1077.29 965.631M320.144 762.754L419.171 393.18M1275.06 227.539L1176.18 596.585M1077.29 965.631L1176.18 596.585M419.171 393.18L1176.18 596.585M925.945 16.1718L665.055 989.825" stroke="#EDF0F0" stroke-width="3"/>
</svg>
