<svg width="48" height="16" viewBox="0 0 48 16" fill="none" xmlns="http://www.w3.org/2000/svg">
<path d="M30.9189 5.87402C31.1806 5.31623 31.5292 4.90869 31.9678 4.65332C32.553 4.32094 33.2871 4.18849 34.1006 4.18848H34.751V6.56445H33.7451C32.9459 6.56445 32.3036 6.80733 31.8184 7.29199C31.3331 7.76285 31.0899 8.42755 31.0898 9.28613V16H28.3164V4.18848H30.9189V5.87402ZM2.73828 5.58984C3.07236 5.23525 3.47115 4.94305 3.9375 4.7168C4.62258 4.37061 5.4153 4.19824 6.31445 4.19824C7.41333 4.19831 8.4052 4.46108 9.29004 4.9873C10.175 5.5136 10.8748 6.22005 11.3887 7.10645C11.9166 7.9927 12.1806 8.98989 12.1807 10.0977C12.1807 11.1918 11.923 12.1896 11.4092 13.0898C10.8954 13.9899 10.1963 14.7033 9.31152 15.2295C8.42667 15.7419 7.42042 15.998 6.29297 15.998C5.45091 15.998 4.6726 15.839 3.95898 15.5205C3.41604 15.2625 2.96075 14.9191 2.58984 14.4941V15.998H0V0H2.73828V5.58984ZM20.0137 4.19824C21.1555 4.19824 22.1904 4.45435 23.1182 4.9668C24.0458 5.47917 24.7809 6.17824 25.3232 7.06445C25.8799 7.93693 26.1582 8.94823 26.1582 10.0977C26.1582 11.2333 25.8799 12.2445 25.3232 13.1309C24.7666 14.0173 24.0245 14.717 23.0967 15.2295C22.169 15.7419 21.1412 15.998 20.0137 15.998C18.8718 15.998 17.8297 15.7419 16.8877 15.2295C15.96 14.7171 15.2178 14.0172 14.6611 13.1309C14.1188 12.2445 13.8477 11.2333 13.8477 10.0977C13.8477 8.96207 14.1188 7.95078 14.6611 7.06445C15.2177 6.17824 15.9601 5.47919 16.8877 4.9668C17.8154 4.45437 18.8576 4.19826 20.0137 4.19824ZM48 15.998H45.4102V14.5068C45.0471 14.9261 44.5926 15.265 44.0439 15.5205C43.3303 15.8391 42.5521 15.998 41.71 15.998C40.5825 15.998 39.5763 15.7418 38.6914 15.2295C37.8065 14.7032 37.1066 13.99 36.5928 13.0898C36.0789 12.1896 35.8223 11.1918 35.8223 10.0977C35.8223 8.98985 36.079 7.99272 36.5928 7.10645C37.1066 6.22005 37.8065 5.5136 38.6914 4.9873C39.5905 4.46108 40.5895 4.19827 41.6885 4.19824C42.5734 4.19824 43.3588 4.37056 44.0439 4.7168C44.5082 4.93746 44.9051 5.22074 45.2373 5.56348V0H48V15.998ZM5.97168 6.69043C5.35804 6.69043 4.80125 6.83621 4.30176 7.12695C3.81656 7.41775 3.43096 7.82639 3.14551 8.35254C2.87435 8.86492 2.73832 9.44682 2.73828 10.0977C2.73828 10.7625 2.87431 11.3518 3.14551 11.8643C3.43095 12.3765 3.8166 12.7776 4.30176 13.0684C4.80131 13.3592 5.35794 13.5049 5.97168 13.5049C6.61389 13.5049 7.18506 13.3592 7.68457 13.0684C8.18389 12.7776 8.5697 12.3765 8.84082 11.8643C9.12629 11.3518 9.26855 10.7625 9.26855 10.0977C9.26852 9.43297 9.12625 8.85107 8.84082 8.35254C8.56963 7.84014 8.1841 7.4383 7.68457 7.14746C7.18506 6.8428 6.61389 6.69046 5.97168 6.69043ZM20.0137 6.69043C19.3715 6.69045 18.8075 6.84282 18.3223 7.14746C17.837 7.43829 17.4515 7.84015 17.166 8.35254C16.8949 8.85107 16.7598 9.43297 16.7598 10.0977C16.7598 10.7486 16.8948 11.338 17.166 11.8643C17.4514 12.3765 17.8372 12.7776 18.3223 13.0684C18.8075 13.3592 19.3714 13.5049 20.0137 13.5049C20.6417 13.5049 21.1911 13.3592 21.6621 13.0684C22.1473 12.7776 22.5257 12.3765 22.7969 11.8643C23.0823 11.338 23.2256 10.7486 23.2256 10.0977C23.2255 9.43297 23.0823 8.85107 22.7969 8.35254C22.5257 7.84025 22.1473 7.43825 21.6621 7.14746C21.1912 6.84293 20.6415 6.69043 20.0137 6.69043ZM42.0098 6.69043C41.3818 6.69044 40.8179 6.84283 40.3184 7.14746C39.8188 7.43828 39.4261 7.84015 39.1406 8.35254C38.8695 8.85107 38.7344 9.43297 38.7344 10.0977C38.7344 10.7625 38.8694 11.3518 39.1406 11.8643C39.426 12.3765 39.819 12.7776 40.3184 13.0684C40.8179 13.3592 41.3818 13.5049 42.0098 13.5049C42.6521 13.5049 43.2159 13.3592 43.7012 13.0684C44.1863 12.7776 44.5648 12.3765 44.8359 11.8643C45.1214 11.3518 45.2637 10.7625 45.2637 10.0977C45.2636 9.44682 45.1214 8.86492 44.8359 8.35254C44.5648 7.82635 44.1864 7.41776 43.7012 7.12695C43.2159 6.83614 42.652 6.69043 42.0098 6.69043Z" fill="#141414"/>
</svg>
