<svg width="24" height="24" viewBox="0 0 24 24" fill="none" xmlns="http://www.w3.org/2000/svg">
<path d="M3 22H21" stroke="#141414" stroke-width="1.5" stroke-linecap="round" stroke-linejoin="round"/>
<path d="M5.59998 8.37891H4C3.45 8.37891 3 8.82891 3 9.37891V17.9989C3 18.5489 3.45 18.9989 4 18.9989H5.59998C6.14998 18.9989 6.59998 18.5489 6.59998 17.9989V9.37891C6.59998 8.82891 6.14998 8.37891 5.59998 8.37891Z" stroke="#141414" stroke-width="1.5" stroke-linecap="round" stroke-linejoin="round"/>
<path d="M12.7992 5.19141H11.1992C10.6492 5.19141 10.1992 5.64141 10.1992 6.19141V18.0014C10.1992 18.5514 10.6492 19.0014 11.1992 19.0014H12.7992C13.3492 19.0014 13.7992 18.5514 13.7992 18.0014V6.19141C13.7992 5.64141 13.3492 5.19141 12.7992 5.19141Z" stroke="#141414" stroke-width="1.5" stroke-linecap="round" stroke-linejoin="round"/>
<path d="M19.9984 2H18.3984C17.8484 2 17.3984 2.45 17.3984 3V18C17.3984 18.55 17.8484 19 18.3984 19H19.9984C20.5484 19 20.9984 18.55 20.9984 18V3C20.9984 2.45 20.5484 2 19.9984 2Z" stroke="#141414" stroke-width="1.5" stroke-linecap="round" stroke-linejoin="round"/>
</svg>
