<svg width="32" height="32" viewBox="0 0 32 32" fill="none" xmlns="http://www.w3.org/2000/svg">
<path fill-rule="evenodd" clip-rule="evenodd" d="M27.52 16.2729C27.52 15.422 27.4436 14.6038 27.3018 13.8184H16V18.4602H22.4582C22.18 19.9602 21.3345 21.2311 20.0636 22.082V25.0929H23.9418C26.2109 23.0038 27.52 19.9274 27.52 16.2729Z" fill="#4285F4"/>
<path fill-rule="evenodd" clip-rule="evenodd" d="M16 27.9993C19.24 27.9993 21.9564 26.9248 23.9418 25.092L20.0636 22.0811C18.9891 22.8011 17.6145 23.2266 16 23.2266C12.8745 23.2266 10.2291 21.1157 9.28546 18.2793H5.27637V21.3884C7.25091 25.3102 11.3091 27.9993 16 27.9993Z" fill="#34A853"/>
<path fill-rule="evenodd" clip-rule="evenodd" d="M9.28545 18.2804C9.04545 17.5604 8.90909 16.7913 8.90909 16.0004C8.90909 15.2095 9.04545 14.4404 9.28545 13.7204V10.6113H5.27636C4.46364 12.2313 4 14.0641 4 16.0004C4 17.9368 4.46364 19.7695 5.27636 21.3895L9.28545 18.2804Z" fill="#FBBC05"/>
<path fill-rule="evenodd" clip-rule="evenodd" d="M16 8.77273C17.7618 8.77273 19.3436 9.37818 20.5873 10.5673L24.0291 7.12545C21.9509 5.18909 19.2345 4 16 4C11.3091 4 7.25091 6.68909 5.27637 10.6109L9.28546 13.72C10.2291 10.8836 12.8745 8.77273 16 8.77273Z" fill="#EA4335"/>
</svg>
